# xmcd
#
# Track frame offsets:
#	150
#	2783
#	19833
#	37504
#	52232
#	71051
#	86368
#	99031
#	120527
#	139675
#	152839
#	172239
#	189364
#	204949
#	218901
#	240984
#
# Disc length: 3466 seconds
#
# Revision: 1
# Processed by: cddbd v1.5.1PL0 Copyright (c) Steve Scherf et al.
# Submitted via: EasyCDDAExtractor 7.0.5.4
#
DISCID=ca0d8810
DTITLE=Wendell Ferguson - Happy Songs Sell Records, Sad Songs Sell Beer
DYEAR=2003
DGENRE=Comedy
TTITLE0=Hey Broken-Nose!
TTITLE1=Happy Songs Sell Records, Sad Songs Sell Beer
TTITLE2=She's Got Herself A Redneck Now
TTITLE3=I'll Get Over Bluegrass (When There's Bluegrass Over Me)
TTITLE4=The Hangin' Tree
TTITLE5=Talk Hockey
TTITLE6=Firmly On The Fence
TTITLE7=The Thirst
TTITLE8=10 Foot Tall and 40 Foot Wide
TTITLE9=Marriage Ain't A Word, It's A Sentence
TTITLE10=Fools Speed Ahead
TTITLE11=Time Flies
TTITLE12=No, No, No Note
TTITLE13=Round and Round
TTITLE14=Those Were The Nights
TTITLE15=Wildwood Flower
EXTD=
EXTT0=
EXTT1=
EXTT2=
EXTT3=
EXTT4=
EXTT5=
EXTT6=
EXTT7=
EXTT8=
EXTT9=
EXTT10=
EXTT11=
EXTT12=
EXTT13=
EXTT14=
EXTT15=
PLAYORDER=
